<?xml version="1.0" standalone="no"?>
<!DOCTYPE svg PUBLIC "-//W3C//DTD SVG 20010904//EN"
 "http://www.w3.org/TR/2001/REC-SVG-20010904/DTD/svg10.dtd">
<svg version="1.0" xmlns="http://www.w3.org/2000/svg"
 width="573.000000pt" height="613.000000pt" viewBox="0 0 573.000000 613.000000"
 preserveAspectRatio="xMidYMid meet">

<g transform="translate(0.000000,613.000000) scale(0.100000,-0.100000)"
fill="#000000" stroke="none">
<path d="M10 3065 l0 -3055 2855 0 2855 0 0 3055 0 3055 -2855 0 -2855 0 0
-3055z m5695 0 l0 -3040 -2837 -3 -2838 -2 0 3045 0 3045 2838 -2 2837 -3 0
-3040z"/>
<path d="M3401 5899 c-1 -15 -8 -44 -17 -65 -39 -93 -127 -165 -276 -226 -71
-29 -84 -39 -114 -83 -36 -54 -53 -74 -102 -119 -25 -23 -43 -30 -77 -31 -25
-1 -63 -10 -84 -20 -24 -10 -50 -15 -65 -11 -40 10 -140 99 -188 168 -36 51
-52 66 -93 82 -108 41 -195 88 -243 131 -54 48 -92 114 -92 158 0 15 -4 27
-10 27 -18 0 -11 -92 11 -137 19 -40 41 -63 99 -106 50 -37 -12 -7 -80 38 -43
28 -87 70 -119 111 -53 70 -66 65 -30 -11 25 -54 83 -115 147 -157 61 -39 18
-28 -68 19 -82 44 -142 93 -170 139 -27 43 -33 40 -18 -10 25 -80 137 -172
271 -222 34 -13 56 -23 49 -23 -15 -1 -175 60 -224 85 -18 9 -50 30 -70 46
-21 16 -38 25 -38 19 0 -25 86 -102 144 -130 79 -39 59 -39 -35 -1 -40 16 -74
28 -76 26 -8 -8 57 -61 102 -82 28 -13 42 -24 33 -24 -30 0 -20 -20 18 -36 33
-14 35 -16 18 -28 -17 -13 -16 -15 16 -35 19 -11 31 -21 26 -21 -5 0 -3 -7 4
-15 7 -8 21 -15 32 -15 10 0 21 -8 25 -17 11 -31 67 -83 90 -83 13 0 24 -8 28
-21 4 -12 12 -18 21 -15 8 3 17 0 20 -7 3 -8 20 -20 39 -27 19 -8 35 -18 35
-23 0 -5 7 -7 15 -3 8 3 15 1 15 -5 0 -6 6 -9 14 -6 8 3 17 -1 20 -10 4 -9 9
-13 12 -10 3 3 21 -1 40 -9 19 -8 39 -12 44 -9 6 4 10 -3 10 -14 0 -21 -7 -24
-225 -103 -60 -21 -114 -43 -119 -48 -6 -6 7 -12 32 -16 30 -5 39 -10 35 -21
-4 -9 2 -16 16 -20 24 -6 26 -15 11 -44 -10 -17 -7 -19 23 -19 32 0 33 -2 29
-30 l-4 -30 52 0 c45 0 54 -4 76 -30 21 -24 29 -28 45 -20 13 7 25 7 38 0 11
-5 26 -8 33 -5 32 13 48 -28 55 -146 6 -91 11 -114 23 -114 11 0 16 15 20 55
l5 55 52 3 52 3 3 -53 c3 -46 6 -53 26 -56 22 -3 22 -2 22 111 0 88 -3 117
-15 127 -22 19 -35 3 -35 -44 l0 -44 -45 -6 c-25 -4 -49 -4 -55 -1 -5 3 -10
24 -10 45 0 27 -6 42 -17 49 -10 5 -15 13 -11 17 13 12 83 12 102 -2 24 -17
43 -8 62 28 15 29 18 30 61 24 l45 -6 -5 29 c-5 25 -4 28 19 23 14 -2 24 0 24
7 0 6 10 11 22 11 18 0 4 19 -74 98 l-97 97 19 37 c16 30 27 37 61 43 22 4 52
13 67 21 14 7 29 11 34 8 4 -3 11 1 14 10 3 8 12 12 20 9 8 -3 14 -1 14 4 0 5
16 15 35 23 19 8 35 20 35 27 0 7 7 13 15 13 9 0 18 6 21 14 3 8 13 12 25 9
13 -4 19 0 19 11 0 9 7 16 15 16 8 0 25 11 37 25 12 14 27 25 34 25 7 0 16 9
19 21 4 11 18 25 32 32 16 7 23 17 20 29 -4 13 1 18 18 18 29 0 49 22 33 38
-8 8 -7 13 8 18 35 13 45 25 33 40 -9 11 -8 14 4 14 16 0 127 98 127 112 0 5
-19 -1 -42 -13 -44 -22 -163 -69 -176 -69 -4 0 26 16 66 36 85 41 179 125 191
171 9 32 8 31 -42 -20 -35 -35 -81 -67 -137 -95 -47 -23 -90 -42 -94 -42 -5 0
22 22 61 49 77 54 122 106 153 172 30 68 24 79 -14 23 -40 -59 -117 -131 -182
-169 -57 -34 -68 -26 -16 11 78 56 126 158 104 219 l-10 30 -1 -26z m-1014
-319 c31 -14 51 -32 70 -67 62 -105 193 -220 239 -209 24 6 60 -15 48 -27 -3
-3 -1 -15 6 -26 8 -15 17 -20 33 -16 12 3 36 1 52 -3 37 -11 36 -39 -2 -89
-20 -26 -29 -31 -43 -23 -13 7 -21 7 -25 0 -3 -5 -11 -10 -16 -10 -6 0 -7 5
-4 10 4 6 -10 1 -30 -10 -43 -24 -45 -24 -45 -5 0 9 10 20 23 25 22 9 22 9 -3
11 -14 1 -28 1 -32 0 -5 0 -8 3 -8 9 0 6 8 10 18 11 16 0 16 1 -1 8 -10 4 -19
11 -20 16 -1 6 -8 9 -14 7 -7 -2 -13 2 -13 8 0 5 4 10 10 10 5 0 9 16 8 35 -1
19 2 38 5 41 4 4 -13 19 -36 34 -23 15 -51 37 -61 48 -11 12 -29 22 -42 22
-20 0 -38 23 -31 41 1 4 -5 15 -14 25 -9 11 -22 35 -29 54 -16 43 -45 70 -76
70 -12 0 -26 5 -29 10 -10 15 16 12 62 -10z m714 -3 c-32 -16 -50 -33 -64 -62
-10 -22 -23 -47 -28 -55 -5 -8 -13 -25 -19 -38 -5 -12 -18 -25 -27 -29 -10 -4
-29 -15 -42 -25 -48 -37 -40 -4 12 51 30 31 61 70 70 86 20 39 54 70 92 83 50
17 53 12 6 -11z m-1004 -43 c-3 -3 -12 -4 -19 -1 -8 3 -5 6 6 6 11 1 17 -2 13
-5z m-40 -30 c-3 -3 -12 -4 -19 -1 -8 3 -5 6 6 6 11 1 17 -2 13 -5z m1253 -45
c-25 -4 -67 -7 -95 -7 l-50 1 40 7 c22 4 65 7 95 7 l55 0 -45 -8z m-1112 -6
c-27 -2 -69 -2 -95 0 -27 2 -5 3 47 3 52 0 74 -1 48 -3z m1089 -43 c14 -9 5
-10 -47 -5 -87 9 -117 28 -33 22 33 -3 69 -10 80 -17z m-1047 0 c-14 -4 -52
-8 -85 -8 -60 1 -60 1 -15 8 25 4 63 7 85 8 34 0 36 -1 15 -8z m30 -18 c0 -11
-70 -32 -101 -31 -14 0 1 8 36 19 33 10 61 19 63 19 1 1 2 -3 2 -7z m954 -18
l31 -14 -29 5 c-16 4 -43 13 -60 21 l-31 14 29 -5 c16 -4 43 -13 60 -21z m-24
-40 c13 -13 9 -13 -25 1 -22 9 -46 19 -52 22 -7 3 -13 9 -13 14 0 12 71 -17
90 -37z m-900 28 c0 -10 -65 -42 -83 -42 -7 1 8 12 33 25 53 28 50 27 50 17z
m584 -22 c14 -14 -36 -13 -69 2 -16 7 -21 14 -14 19 13 8 68 -6 83 -21z m272
-38 c-6 -6 -56 29 -56 39 0 5 13 0 30 -12 16 -13 28 -24 26 -27z m-861 3 c-39
-32 -58 -32 -22 0 15 14 33 25 40 25 7 0 -1 -11 -18 -25z m818 -10 c10 -14 14
-25 9 -25 -6 0 -17 11 -26 25 -21 32 -7 32 17 0z m-798 -15 c-16 -16 -31 -28
-33 -25 -7 7 39 55 52 55 5 0 -3 -13 -19 -30z m579 14 c10 -26 7 -33 -13 -31
-11 0 -17 5 -14 11 4 5 -1 7 -10 3 -20 -7 -22 4 -5 21 17 17 35 15 42 -4z
m191 -24 c9 -16 13 -30 11 -30 -3 0 -12 14 -21 30 -9 17 -13 30 -11 30 3 0 12
-13 21 -30z m-740 -4 c-9 -13 -24 -27 -33 -31 -10 -4 -5 6 12 24 36 37 42 39
21 7z m721 -44 c-6 -6 -26 43 -25 61 0 7 7 -3 15 -22 8 -18 13 -36 10 -39z
m-706 8 c-7 -17 -15 -28 -18 -26 -2 3 1 19 8 36 7 17 15 28 18 26 2 -3 -1 -19
-8 -36z m680 -10 c0 -13 -1 -13 -10 0 -5 8 -10 22 -10 30 0 13 1 13 10 0 5 -8
10 -22 10 -30z m-661 -24 c-9 -8 -10 -7 -5 7 3 10 7 24 7 30 1 7 3 4 6 -7 3
-10 -1 -23 -8 -30z m628 2 c-3 -7 -5 -2 -5 12 0 14 2 19 5 13 2 -7 2 -19 0
-25z m-600 -10 c-3 -8 -6 -5 -6 6 -1 11 2 17 5 13 3 -3 4 -12 1 -19z m318
-108 c-3 -5 -12 -10 -18 -10 -7 0 -6 4 3 10 19 12 23 12 15 0z m-18 -46 c-3
-3 -12 -4 -19 -1 -8 3 -5 6 6 6 11 1 17 -2 13 -5z m-133 -73 c-4 -9 -8 -44 -9
-79 -2 -68 -24 -113 -26 -51 l-1 34 -12 -35 -13 -35 -5 35 c-3 20 0 46 8 62 8
15 14 38 14 52 0 23 11 33 38 33 8 0 10 -6 6 -16z m136 -36 c-5 -6 -12 -31
-16 -55 -7 -47 -23 -88 -24 -61 0 11 -3 11 -17 0 -15 -11 -16 -11 -5 1 17 20
15 43 -3 36 -8 -3 -15 -1 -15 5 0 5 7 12 15 15 8 4 12 11 9 16 -4 6 -3 13 2
17 5 3 18 19 28 35 14 22 20 25 27 15 4 -7 4 -18 -1 -24z m-340 20 c0 -2 -13
-11 -30 -20 -38 -19 -40 -11 -2 9 31 17 32 18 32 11z m50 -30 c0 -2 -27 -23
-60 -45 -77 -52 -79 -45 -3 9 60 42 63 44 63 36z m430 -50 l25 -30 -33 29
c-17 17 -32 34 -32 40 0 6 3 6 8 1 4 -6 18 -23 32 -40z m-436 -30 c-35 -43
-44 -51 -44 -40 0 6 71 85 77 85 2 0 -12 -20 -33 -45z m407 8 c13 -16 12 -17
-3 -4 -17 13 -22 21 -14 21 2 0 10 -8 17 -17z m30 -40 c13 -16 12 -17 -3 -4
-17 13 -22 21 -14 21 2 0 10 -8 17 -17z m-251 -53 l-11 -25 6 25 c2 14 5 34 6
45 2 19 2 19 6 0 2 -12 -1 -32 -7 -45z m137 28 c-3 -7 -5 -2 -5 12 0 14 2 19
5 13 2 -7 2 -19 0 -25z"/>
<path d="M2886 4672 c-10 -17 -18 -219 -9 -225 6 -4 47 -9 92 -13 78 -7 83 -6
79 12 -3 16 -14 19 -66 22 l-62 3 0 34 0 35 59 0 c55 0 83 12 67 28 -4 3 -34
8 -67 10 -56 4 -60 6 -55 26 3 11 6 24 6 29 0 4 29 7 65 7 48 0 65 4 65 14 0
20 -162 38 -174 18z"/>
<path d="M2410 4661 c-40 -4 -55 -10 -55 -21 0 -10 13 -16 41 -18 l41 -3 7
-92 c6 -95 14 -114 41 -103 17 6 17 20 -1 163 l-5 42 38 3 c26 2 38 8 38 18 0
17 -54 21 -145 11z"/>
<path d="M3206 4623 c-15 -76 -25 -198 -17 -206 15 -15 41 1 41 25 0 13 3 33
6 46 6 21 12 23 53 21 35 -3 47 0 49 12 2 13 -9 18 -46 23 -48 6 -48 7 -44 37
l5 31 59 -6 c54 -7 59 -5 56 11 -3 19 -50 31 -120 32 -32 1 -37 -2 -42 -26z"/>
<path d="M2195 4635 c-5 -2 -36 -9 -67 -15 -54 -11 -58 -13 -58 -39 0 -31 36
-200 44 -208 3 -3 12 -3 21 1 12 4 15 18 13 58 l-3 52 43 9 c27 5 42 14 42 23
0 12 -11 15 -52 12 -51 -3 -53 -2 -56 24 -3 23 1 28 25 34 59 13 78 21 78 34
0 14 -13 21 -30 15z"/>
<path d="M3411 4515 c-34 -52 -61 -102 -61 -109 0 -28 22 -28 44 -1 21 26 26
27 70 21 42 -7 47 -10 53 -38 6 -31 28 -47 44 -31 5 5 1 50 -11 113 -27 139
-27 140 -55 140 -18 0 -36 -20 -84 -95z m88 -8 c8 -47 8 -47 -20 -47 -15 0
-31 4 -34 10 -5 8 36 92 42 86 2 -1 7 -24 12 -49z"/>
<path d="M1864 4560 c-59 -24 -81 -106 -48 -176 51 -107 224 -67 224 52 0 41
-37 109 -66 122 -29 14 -80 15 -110 2z m81 -36 c42 -17 59 -110 25 -144 -40
-40 -102 -16 -119 46 -20 72 29 123 94 98z"/>
<path d="M3665 4560 c-13 -21 -62 -205 -58 -217 5 -12 143 -53 156 -46 22 13
1 33 -48 48 -30 8 -55 21 -55 27 0 6 9 42 21 80 11 38 19 79 17 90 -3 24 -23
35 -33 18z"/>
<path d="M1550 4450 c-36 -16 -69 -34 -73 -42 -11 -18 67 -202 88 -206 18 -4
123 36 145 55 10 9 11 16 4 23 -8 8 -25 4 -58 -10 -26 -11 -53 -20 -60 -20
-10 0 -36 39 -36 54 0 2 25 14 55 26 30 12 55 26 55 31 0 20 -31 20 -76 0 -53
-24 -50 -24 -62 9 -9 23 -6 27 50 52 34 16 58 33 56 40 -7 20 -20 18 -88 -12z"/>
<path d="M3855 4458 c-15 -12 -34 -36 -41 -54 -31 -74 -8 -133 61 -160 43 -16
48 -16 81 -1 38 19 53 42 36 59 -7 7 -19 4 -38 -11 -32 -25 -52 -26 -82 -5
-42 29 -19 134 34 154 35 14 72 -6 82 -44 10 -39 36 -41 40 -3 2 20 -5 35 -27
57 -38 38 -103 42 -146 8z"/>
<path d="M4124 4370 c-31 -12 -71 -69 -79 -111 -10 -53 16 -96 72 -121 58 -26
95 -16 136 34 40 50 47 112 16 152 -36 46 -97 66 -145 46z m91 -52 c24 -18 27
-26 22 -61 -10 -75 -81 -114 -128 -71 -31 28 -20 90 21 127 37 33 49 34 85 5z"/>
<path d="M1345 4357 c-17 -13 -17 -16 0 -86 9 -40 15 -74 13 -76 -3 -3 -28 20
-57 50 -29 30 -56 55 -61 55 -4 0 -18 -8 -30 -18 l-22 -18 54 -99 c31 -58 61
-101 71 -103 26 -5 21 24 -18 94 -19 34 -35 66 -35 70 0 4 25 -20 56 -54 88
-98 119 -83 85 40 -12 41 -21 78 -21 84 0 5 19 -24 43 -65 43 -76 63 -94 73
-67 8 20 -97 206 -117 206 -8 0 -23 -6 -34 -13z"/>
<path d="M2115 4242 c-71 -70 -265 -260 -430 -422 -273 -267 -283 -278 -110
-119 242 221 329 303 385 360 98 101 292 309 289 309 -2 0 -62 -58 -134 -128z"/>
<path d="M3135 4334 c74 -77 279 -257 370 -326 55 -42 116 -89 135 -104 82
-64 -21 27 -240 211 -129 109 -248 209 -265 224 l-30 26 30 -31z"/>
<path d="M4367 4228 c-55 -75 -97 -144 -97 -161 0 -35 33 -13 77 52 l42 64 3
-109 c4 -136 15 -144 80 -52 82 118 90 134 74 148 -12 10 -23 0 -63 -55 l-48
-67 -5 103 c-4 86 -8 104 -22 107 -9 2 -27 -11 -41 -30z"/>
<path d="M1016 4160 c-45 -40 -53 -77 -27 -134 35 -81 119 -108 185 -60 92 69
37 224 -80 224 -34 0 -51 -7 -78 -30z m113 -26 c55 -39 59 -122 6 -146 -33
-15 -69 1 -95 44 -25 42 -25 73 0 98 24 24 58 26 89 4z"/>
<path d="M4590 4070 c-28 -28 -25 -55 10 -110 33 -52 32 -80 -5 -80 -32 0 -55
31 -55 74 0 30 -3 37 -17 34 -22 -4 -30 -62 -13 -93 30 -56 115 -72 149 -28
25 30 22 48 -20 112 -22 34 -26 47 -18 58 25 29 65 0 71 -52 4 -42 32 -40 36
3 4 37 -15 65 -60 88 -37 19 -54 18 -78 -6z"/>
<path d="M847 4028 c-2 -7 9 -29 24 -49 l29 -37 -35 -31 c-20 -17 -39 -31 -42
-31 -4 0 -21 14 -39 31 -31 30 -54 32 -54 4 0 -22 143 -175 163 -175 26 0 20
30 -13 69 l-30 35 23 24 c43 47 57 48 93 8 21 -23 38 -34 48 -30 31 12 20 29
-91 147 -45 47 -68 58 -76 35z"/>
<path d="M3690 3866 c0 -2 8 -10 18 -17 15 -13 16 -12 3 4 -13 16 -21 21 -21
13z"/>
<path d="M2409 3803 l-366 -3 -144 -127 c-79 -69 -163 -144 -187 -165 l-43
-40 24 -37 c70 -106 99 -193 116 -353 15 -132 14 -200 -4 -283 -8 -39 -15
-110 -15 -159 0 -173 54 -298 189 -436 47 -48 107 -102 133 -121 26 -19 48
-37 48 -41 0 -4 -30 -23 -67 -43 -38 -19 -124 -76 -193 -126 -140 -101 -236
-151 -333 -175 -58 -15 -73 -15 -124 -3 -65 16 -70 25 -58 106 6 43 6 43 49
43 54 0 86 21 70 47 -13 22 -55 28 -95 14 -24 -8 -37 -6 -69 10 -50 26 -144
28 -305 4 -168 -25 -163 -21 -121 -77 20 -25 52 -60 72 -76 l37 -30 -64 -32
c-64 -33 -200 -122 -218 -143 -7 -9 32 -12 157 -12 112 0 183 -5 214 -14 48
-14 48 -14 42 -51 -6 -34 -3 -39 42 -79 27 -23 78 -56 114 -74 62 -31 70 -32
180 -31 94 0 127 4 180 23 134 49 288 138 472 274 88 65 260 150 350 174 l63
16 85 -52 c47 -28 91 -51 99 -51 8 0 61 25 117 55 57 30 113 55 125 55 38 0
195 -58 296 -109 54 -27 201 -108 328 -180 383 -218 523 -267 660 -230 57 15
128 63 169 114 l36 43 -15 73 c-9 40 -12 76 -8 80 22 22 136 40 261 40 72 1
132 4 132 8 0 4 -13 28 -30 52 -32 50 -80 91 -152 133 -27 15 -48 29 -48 31 0
2 43 26 95 54 52 29 95 55 95 60 0 17 -118 43 -217 48 -161 9 -299 -28 -355
-95 -25 -30 -28 -31 -55 -17 -35 19 -82 19 -107 0 -19 -14 -19 -15 0 -36 17
-19 27 -21 82 -16 l62 5 0 -71 0 -70 -87 5 c-68 4 -107 13 -170 38 -76 30
-104 50 -69 50 27 0 167 104 215 159 173 200 262 464 260 771 0 128 -9 198
-24 190 -6 -3 -9 -8 -8 -11 1 -4 5 -61 9 -127 12 -209 -25 -399 -111 -579 -74
-152 -175 -263 -338 -371 l-49 -33 -36 23 c-21 12 -69 44 -108 70 -39 26 -119
72 -177 103 l-106 56 77 77 c125 124 172 238 172 415 0 96 -17 206 -50 332
-51 189 -48 309 12 470 16 44 32 90 35 101 4 17 -28 55 -165 193 l-170 171
-273 -2 c-151 -2 -439 -4 -640 -5z m178 -191 c52 -27 84 -72 90 -126 6 -54
-14 -94 -67 -137 l-39 -32 47 -56 c85 -100 85 -91 -6 -91 l-79 0 -102 118
-101 117 76 3 c51 2 81 -1 92 -10 9 -7 13 -8 9 -2 -4 7 4 19 18 28 55 36 19
81 -69 88 -55 5 -62 8 -98 49 -75 85 -77 82 63 77 102 -4 131 -8 166 -26z
m-254 -34 c25 -29 44 -55 42 -58 -2 -3 -28 -3 -59 -2 l-56 4 0 54 c0 70 14 70
73 2z m23 -216 l40 -47 -4 -72 -4 -73 -64 0 -64 0 0 120 0 120 28 0 c20 0 37
-12 68 -48z m338 -472 c1 -77 4 -140 8 -140 3 0 12 24 19 53 16 68 44 134 75
174 33 44 51 42 25 -2 -11 -19 -18 -41 -15 -48 3 -8 -2 -20 -11 -27 -8 -7 -15
-21 -15 -30 0 -30 -11 -50 -27 -50 -12 0 -13 -3 -3 -15 10 -12 21 -4 72 51 59
62 95 91 104 81 2 -2 -6 -15 -18 -28 -63 -68 -129 -150 -167 -206 l-41 -62 -7
-220 c-3 -121 -10 -218 -15 -215 -4 3 -8 104 -8 225 0 132 -4 219 -10 219 -5
0 -37 37 -72 83 -34 45 -91 109 -126 142 -64 59 -69 80 -14 51 33 -17 131
-120 169 -178 14 -21 28 -37 30 -34 6 6 -59 171 -96 245 -28 54 -30 62 -14 59
12 -2 38 -44 76 -117 l57 -114 0 133 c0 104 3 131 12 122 8 -8 12 -57 12 -152z
m392 -155 c9 -12 45 -222 68 -392 l6 -43 -67 0 c-139 -1 -297 -41 -334 -86 -6
-8 -16 -14 -21 -14 -6 0 -8 90 -6 229 3 263 1 256 95 291 106 40 234 47 259
15z m-601 0 c33 -9 78 -28 101 -42 38 -24 42 -31 48 -77 8 -67 8 -243 0 -339
l-7 -75 -37 24 c-59 39 -144 64 -261 76 l-109 11 0 36 c0 42 40 374 46 380 7
7 77 19 119 20 23 0 67 -6 100 -14z m-279 -154 c-4 -44 -14 -121 -21 -173 -8
-51 -15 -105 -15 -120 l0 -28 113 0 c123 0 218 -18 278 -52 22 -12 37 -23 35
-25 -2 -2 -28 3 -57 11 -60 17 -228 36 -323 36 -33 0 -67 4 -74 9 -11 6 -10
42 8 197 24 216 26 224 47 224 13 0 15 -11 9 -79z m977 65 c10 -25 60 -396 55
-401 -3 -3 -64 -11 -134 -16 -115 -9 -232 -26 -304 -44 -24 -6 -24 -6 -6 9 53
43 198 75 339 76 l67 0 0 33 c0 17 -13 105 -29 195 -26 150 -27 162 -11 162
10 0 20 -6 23 -14z m-118 -525 c208 -40 405 -126 618 -268 201 -135 302 -175
441 -175 65 -1 94 4 149 27 38 15 70 25 71 23 2 -1 22 -68 46 -147 46 -157 47
-145 -23 -182 -115 -61 -283 -64 -447 -9 -117 39 -287 127 -487 253 -287 179
-510 243 -748 216 -218 -24 -325 -70 -610 -259 -296 -196 -420 -250 -571 -250
-98 0 -187 28 -269 85 l-53 36 43 122 c28 80 48 121 57 120 7 -1 47 -14 88
-29 65 -23 86 -26 155 -21 103 6 162 30 300 121 180 118 204 132 335 195 152
72 251 106 395 137 147 30 365 33 510 5z m1663 -156 c22 -7 19 -10 -29 -36
-60 -33 -119 -77 -119 -88 0 -4 31 -29 70 -55 38 -26 83 -62 100 -79 l31 -32
-148 -6 c-81 -4 -164 -10 -183 -13 l-35 -7 -18 56 c-35 108 -44 122 -97 152
-27 15 -50 31 -50 35 0 14 79 60 127 74 50 14 304 13 351 -1z m-3396 -92 c49
-28 48 -57 -2 -77 -22 -9 -49 -16 -59 -16 -14 0 -25 -19 -46 -77 -43 -120 -37
-114 -92 -97 -27 8 -90 16 -140 17 -51 1 -93 3 -93 4 0 1 26 18 58 37 31 20
63 40 71 45 12 8 1 25 -53 86 -38 42 -67 77 -65 79 11 10 206 24 291 21 74 -2
106 -8 130 -22z"/>
<path d="M2855 2670 c-11 -17 5 -32 21 -19 8 6 14 15 14 20 0 12 -27 11 -35
-1z"/>
<path d="M2892 2656 l-23 -25 30 12 c16 6 27 16 25 21 -3 6 2 2 10 -8 12 -15
19 -17 28 -8 14 14 10 19 -22 26 -19 5 -31 0 -48 -18z"/>
<path d="M2850 2632 c0 -7 -3 -11 -7 -11 -36 6 -44 -18 -15 -44 24 -22 33 -21
25 1 -5 14 -3 13 10 -3 11 -15 12 -22 4 -28 -13 -8 42 2 58 12 6 3 16 6 24 8
24 3 36 22 23 35 -9 9 -12 8 -12 -4 0 -9 -4 -19 -8 -22 -5 -3 -6 8 -4 24 3 22
-1 29 -17 35 -11 3 -28 2 -37 -3 -15 -8 -15 -10 0 -15 10 -4 15 -3 12 1 -3 5
1 9 7 9 7 0 14 -9 14 -19 2 -15 -1 -16 -20 -7 -12 6 -30 18 -39 27 -12 10 -18
11 -18 4z"/>
<path d="M2848 2478 c9 -9 15 -9 24 0 9 9 7 12 -12 12 -19 0 -21 -3 -12 -12z"/>
<path d="M2910 2455 c-6 -8 -10 -20 -7 -27 4 -9 6 -7 6 3 1 9 8 16 17 15 9 0
19 5 21 12 6 17 -22 15 -37 -3z"/>
<path d="M2410 2610 c0 -27 -2 -29 -30 -23 -16 3 -30 2 -30 -3 0 -5 -3 -19 -6
-31 -5 -18 -1 -22 23 -25 l28 -3 -3 -77 -3 -78 29 0 c30 0 30 0 37 76 l7 76
28 -5 c23 -5 29 -2 34 16 9 34 8 35 -24 42 -25 5 -30 11 -30 36 0 26 -4 29
-30 29 -27 0 -30 -3 -30 -30z"/>
<path d="M4237 3260 c14 -124 68 -282 100 -294 14 -6 15 3 11 66 -5 80 -42
178 -90 239 l-26 34 5 -45z"/>
<path d="M1302 3263 c-49 -68 -75 -145 -80 -228 l-5 -80 21 19 c37 33 99 237
90 298 -3 22 -4 21 -26 -9z"/>
<path d="M1375 3110 c-33 -13 -73 -62 -89 -108 l-16 -44 32 19 c36 21 61 53
83 106 8 20 14 37 13 36 -2 0 -12 -4 -23 -9z"/>
<path d="M4175 3098 c14 -45 34 -75 72 -108 30 -27 39 -30 41 -18 7 36 -44
110 -91 135 -28 14 -29 14 -22 -9z"/>
<path d="M1140 3009 c0 -96 38 -192 55 -139 10 31 -4 108 -26 152 -11 21 -22
38 -24 38 -3 0 -5 -23 -5 -51z"/>
<path d="M4405 3036 c-22 -34 -35 -84 -35 -138 0 -101 47 -24 57 93 3 38 3 69
0 69 -4 0 -14 -11 -22 -24z"/>
<path d="M1308 2953 c-37 -23 -73 -113 -45 -113 15 0 87 74 87 89 0 5 3 16 6
25 8 21 -13 20 -48 -1z"/>
<path d="M4210 2960 c0 -23 40 -88 64 -103 34 -23 36 -22 36 13 0 19 -10 41
-27 59 -30 31 -73 50 -73 31z"/>
<path d="M1223 2918 c-13 -21 -16 -305 -3 -392 46 -324 216 -602 437 -715 23
-11 47 -21 53 -21 21 0 9 21 -21 38 -17 9 -67 45 -110 78 -181 140 -304 373
-340 641 -7 55 -9 144 -6 236 4 81 4 147 2 147 -2 0 -7 -6 -12 -12z"/>
<path d="M1115 2841 c6 -57 23 -103 48 -136 15 -19 16 -19 23 -2 12 32 -14
121 -47 158 l-30 34 6 -54z"/>
<path d="M4432 2877 c-25 -30 -52 -105 -52 -146 0 -39 2 -42 17 -30 23 19 49
85 58 142 6 47 -2 60 -23 34z"/>
<path d="M1306 2839 c-33 -26 -56 -75 -56 -121 l0 -32 30 29 c28 27 65 114 58
136 -2 6 -16 1 -32 -12z"/>
<path d="M4237 2808 c18 -61 48 -108 69 -108 36 0 -3 112 -50 143 -14 10 -27
17 -30 17 -3 0 2 -24 11 -52z"/>
<path d="M1308 2579 c-22 -33 -28 -55 -28 -96 0 -31 4 -53 11 -53 20 0 50 88
47 141 l-3 50 -27 -42z"/>
<path d="M4225 2565 c7 -62 33 -127 50 -129 6 0 11 18 13 41 3 44 -22 107 -54
134 -16 13 -16 10 -9 -46z"/>
<path d="M1096 2547 c13 -43 33 -75 64 -101 43 -35 61 -35 50 3 -16 58 -50 95
-103 114 -15 6 -17 3 -11 -16z"/>
<path d="M4430 2548 c-39 -27 -66 -63 -74 -100 -14 -61 60 -14 99 63 14 26 25
51 25 54 0 11 -18 4 -50 -17z"/>
<path d="M1336 2456 c-29 -50 -36 -135 -13 -155 11 -9 16 -3 26 29 13 45 27
170 18 170 -3 0 -17 -20 -31 -44z"/>
<path d="M4200 2447 c0 -29 7 -78 16 -107 15 -50 17 -53 30 -35 22 29 17 90
-12 145 -14 28 -28 50 -30 50 -2 0 -4 -24 -4 -53z"/>
<path d="M1197 2191 c39 -39 59 -51 82 -51 39 0 40 19 3 61 -24 26 -37 32 -83
36 l-54 5 52 -51z"/>
<path d="M4312 2227 c-13 -6 -32 -28 -43 -49 l-19 -38 34 0 c28 0 45 10 88 50
l53 49 -45 0 c-25 0 -55 -5 -68 -12z"/>
<path d="M1490 2149 c-15 -66 -8 -119 20 -144 18 -17 20 -17 26 -1 8 22 -1 97
-19 156 l-14 45 -13 -56z"/>
<path d="M4057 2180 c-22 -64 -27 -90 -27 -136 0 -30 4 -54 10 -54 22 0 44 53
43 104 -2 57 -18 111 -26 86z"/>
<path d="M1646 2006 c-10 -41 11 -121 38 -138 27 -18 33 -8 25 42 -7 42 -42
120 -54 120 -1 0 -6 -11 -9 -24z"/>
<path d="M3904 2019 c-22 -28 -42 -75 -49 -117 -6 -39 -5 -43 10 -40 36 7 56
50 53 113 -2 45 -6 55 -14 44z"/>
<path d="M1477 1813 c-44 -31 -46 -40 -12 -49 39 -10 89 4 114 30 23 24 23 24
3 35 -33 18 -65 13 -105 -16z"/>
<path d="M3981 1826 c-10 -11 -7 -19 10 -35 27 -25 69 -35 111 -25 l33 7 -39
33 c-43 37 -94 46 -115 20z"/>
<path d="M5158 1407 c-41 -11 -51 -40 -23 -61 13 -9 15 -44 13 -236 l-3 -224
-54 239 c-30 132 -55 241 -56 243 -2 2 -21 -2 -44 -8 -44 -12 -55 -36 -26 -60
13 -11 15 -62 15 -350 0 -288 -2 -339 -15 -350 -8 -7 -15 -21 -15 -31 0 -16 8
-19 45 -19 39 0 45 3 45 21 0 12 -6 27 -14 33 -11 9 -15 68 -19 301 -2 161 -1
281 4 270 10 -23 87 -357 119 -515 12 -58 24 -112 28 -120 4 -8 9 167 12 390
4 365 7 409 23 433 17 27 23 58 10 56 -5 -1 -25 -6 -45 -12z"/>
<path d="M380 1327 c0 -8 9 -26 20 -39 17 -23 20 -51 29 -311 6 -157 15 -307
21 -332 33 -145 119 -167 156 -39 13 47 15 99 13 324 -4 278 -1 301 35 287 9
-4 20 -17 25 -29 5 -13 12 -149 16 -303 6 -251 5 -282 -9 -294 -9 -7 -16 -22
-16 -32 0 -16 8 -19 45 -19 37 0 45 3 45 19 0 10 -7 24 -15 31 -20 17 -23 46
-29 290 l-5 215 29 -100 c105 -357 134 -451 142 -460 6 -6 7 104 3 297 -7 279
-6 308 9 314 33 13 18 39 -29 50 -38 9 -45 8 -45 -5 0 -8 8 -23 17 -33 15 -17
18 -45 20 -186 l3 -167 -55 180 c-30 99 -58 195 -61 213 -4 19 -12 35 -18 37
-6 1 -38 10 -71 20 -33 9 -70 20 -82 25 -18 8 -23 6 -23 -7 0 -9 8 -25 18 -36
14 -16 18 -52 26 -241 10 -239 4 -323 -23 -357 -14 -18 -21 -20 -37 -11 -35
19 -44 78 -55 352 -9 235 -8 266 6 276 31 23 18 49 -32 64 -27 8 -54 16 -60
18 -7 2 -13 -3 -13 -11z"/>
<path d="M4783 1308 c-52 -57 -79 -158 -89 -333 -10 -179 20 -359 69 -413 31
-33 75 -26 104 16 42 64 58 168 58 387 0 166 -3 210 -19 262 -30 99 -78 130
-123 81z m63 -74 c35 -83 37 -504 4 -601 -21 -59 -59 -47 -81 25 -16 55 -24
393 -10 480 20 127 57 168 87 96z"/>
<path d="M4603 1252 c-57 -16 -64 -28 -33 -55 19 -16 20 -29 20 -302 0 -245
-2 -286 -15 -291 -8 -4 -15 -15 -15 -25 0 -17 8 -19 60 -19 65 0 76 12 40 45
-19 17 -20 31 -20 310 0 248 2 294 15 305 15 13 21 51 8 49 -5 -1 -32 -8 -60
-17z"/>
<path d="M4435 1208 c-38 -11 -76 -22 -82 -24 -9 -2 -13 -30 -12 -96 2 -92 2
-92 11 -38 11 65 20 84 40 88 12 2 16 -23 21 -155 12 -285 10 -350 -13 -373
-34 -34 -25 -45 40 -47 48 -1 60 2 60 14 0 9 -7 21 -16 27 -13 10 -16 49 -17
281 -2 257 -1 270 17 273 24 5 35 -14 37 -58 0 -19 4 -44 9 -55 6 -13 9 16 9
83 1 117 8 112 -104 80z"/>
<path d="M920 1164 c0 -9 8 -23 17 -30 16 -11 19 -42 26 -271 7 -242 7 -259
-10 -273 -37 -32 -26 -40 50 -40 47 0 80 5 93 15 52 36 90 194 81 339 -6 104
-18 149 -50 197 -19 28 -33 37 -87 50 -36 8 -77 19 -92 22 -22 6 -28 4 -28 -9z
m144 -75 c48 -38 74 -196 57 -346 -13 -104 -31 -143 -70 -143 l-28 0 -6 98
c-4 53 -7 168 -7 255 0 171 2 177 54 136z"/>
<path d="M4203 1154 c-59 -29 -97 -123 -109 -263 -15 -180 42 -331 125 -331
28 0 91 62 91 91 0 24 -4 24 -39 -2 -38 -28 -66 -18 -94 34 -20 38 -22 56 -22
187 0 158 11 210 49 236 43 28 70 -3 82 -96 11 -81 24 -57 24 43 0 91 -1 94
-25 105 -33 15 -43 15 -82 -4z"/>
<path d="M1190 1109 c0 -5 9 -22 19 -37 17 -24 20 -52 24 -244 5 -205 5 -217
-14 -234 -10 -9 -19 -21 -19 -26 0 -13 191 -8 195 6 2 6 6 40 10 76 7 71 -4
72 -24 3 -11 -41 -14 -43 -50 -43 l-38 0 -7 77 c-11 131 -10 135 21 131 22 -2
30 -11 39 -43 12 -38 13 -34 13 58 1 54 -3 97 -8 97 -6 0 -11 -15 -13 -32 -2
-28 -7 -33 -28 -33 -25 0 -25 1 -28 93 -3 100 -1 103 52 82 18 -6 29 -22 38
-52 l13 -43 3 44 c6 79 0 88 -70 100 -35 6 -78 15 -95 20 -21 6 -33 6 -33 0z"/>
<path d="M3953 1085 c-93 -20 -106 -28 -78 -49 13 -9 17 -47 22 -202 6 -190 6
-190 -17 -212 -13 -12 -22 -24 -19 -26 2 -2 45 -7 96 -10 104 -8 97 -15 108
89 7 67 -4 66 -24 -2 -11 -41 -13 -43 -51 -43 l-40 0 -1 68 c-1 37 -2 81 -3
97 -1 26 3 30 26 33 23 3 28 -1 34 -25 11 -53 12 -48 12 52 0 93 0 97 -12 60
-9 -32 -17 -41 -39 -43 l-27 -3 0 84 c0 79 1 85 23 91 53 14 65 8 74 -36 11
-56 20 -28 13 42 l-5 55 -92 -20z"/>
<path d="M1410 1059 c0 -6 9 -18 19 -27 17 -15 20 -38 25 -215 6 -189 5 -198
-14 -214 -31 -27 -24 -33 40 -33 61 0 76 11 45 34 -22 16 -35 191 -14 184 8
-3 24 -46 38 -106 l25 -102 48 0 c53 0 60 10 23 34 -18 12 -32 39 -51 100 -25
82 -25 85 -8 117 22 43 22 135 0 177 -10 20 -26 34 -44 37 -15 4 -46 10 -69
16 -54 12 -63 11 -63 -2z m130 -68 c14 -27 13 -134 -2 -149 -30 -30 -38 -13
-38 78 0 72 3 90 15 90 8 0 19 -9 25 -19z"/>
<path d="M3760 1045 c-30 -7 -67 -14 -81 -14 -15 -1 -30 -8 -33 -17 -10 -26
-7 -114 4 -114 6 0 10 13 10 28 0 31 16 56 43 65 16 6 17 -7 17 -179 0 -155
-2 -186 -15 -190 -35 -14 -12 -29 45 -32 64 -3 72 3 40 31 -19 16 -20 29 -20
202 l0 185 24 0 c22 0 26 -6 32 -45 7 -47 24 -62 24 -21 0 52 -13 116 -24 115
-6 -1 -36 -7 -66 -14z"/>
<path d="M1830 998 c-14 -7 -35 -33 -47 -58 -31 -60 -33 -223 -4 -286 34 -74
76 -88 164 -57 l49 18 -7 67 c-6 60 -5 68 14 85 32 27 26 33 -39 33 -56 0 -78
-11 -46 -23 18 -7 31 -124 15 -143 -18 -22 -56 -17 -78 12 -31 40 -44 100 -39
184 6 88 22 128 55 137 42 10 72 -12 85 -62 7 -25 16 -45 20 -45 4 0 8 26 8
58 0 53 -2 60 -25 70 -42 19 -98 24 -125 10z"/>
<path d="M3455 988 c-44 -35 -65 -92 -65 -183 0 -44 5 -96 10 -116 23 -81 112
-119 164 -70 72 68 77 298 9 373 -23 25 -83 23 -118 -4z m92 -40 c22 -42 25
-236 4 -285 -18 -45 -59 -46 -84 -3 -37 62 -34 246 4 294 28 35 55 33 76 -6z"/>
<path d="M2103 968 c-38 -18 -63 -85 -63 -169 0 -137 34 -199 109 -199 80 0
121 66 121 196 0 136 -77 215 -167 172z m89 -48 c22 -30 34 -142 24 -214 -13
-85 -69 -108 -103 -42 -25 46 -25 222 0 260 22 33 52 32 79 -4z"/>
<path d="M3150 955 c0 -8 6 -15 14 -15 11 0 15 -31 21 -142 7 -137 7 -142 -14
-157 -30 -23 -17 -31 46 -31 53 0 67 11 37 28 -19 10 -26 124 -9 131 6 3 21
-32 34 -77 l24 -82 44 0 c46 0 54 8 24 27 -10 6 -30 41 -44 77 l-25 65 20 38
c21 42 20 111 -2 138 -18 22 -170 22 -170 0z m134 -57 c12 -46 -4 -88 -34 -88
-18 0 -20 6 -20 66 0 62 1 65 23 62 16 -2 24 -13 31 -40z"/>
<path d="M2290 953 c0 -4 9 -14 20 -21 18 -11 20 -23 20 -152 0 -116 -3 -142
-15 -146 -8 -4 -15 -11 -15 -16 0 -6 29 -9 74 -6 87 4 120 22 151 84 38 76 20
215 -33 243 -23 12 -202 25 -202 14z m175 -54 c17 -17 20 -33 20 -113 0 -87
-2 -97 -25 -121 -16 -17 -33 -25 -50 -23 l-25 3 -3 144 -3 144 33 -7 c18 -4
42 -16 53 -27z"/>
<path d="M2754 953 c-38 -7 -59 -41 -59 -94 0 -47 3 -52 53 -98 53 -49 60 -67
42 -102 -19 -34 -49 -23 -69 24 l-18 42 -4 -49 c-4 -42 -2 -50 18 -59 33 -15
91 0 109 29 21 31 23 94 4 128 -7 15 -29 36 -47 47 -36 22 -52 62 -36 88 17
27 46 19 65 -19 l17 -35 1 48 c0 34 -4 47 -14 47 -8 0 -20 2 -28 4 -7 2 -23 1
-34 -1z"/>
<path d="M2983 953 c-45 -4 -57 -17 -23 -26 19 -5 20 -14 20 -141 0 -112 -3
-138 -15 -142 -33 -13 -11 -24 48 -23 59 0 61 1 40 16 -20 13 -23 25 -23 75 0
33 4 57 9 54 16 -10 59 12 76 38 9 14 17 46 18 72 0 38 -4 51 -22 66 -23 18
-38 19 -128 11z m85 -35 c7 -7 12 -33 12 -60 0 -37 -4 -50 -19 -58 -11 -5 -22
-10 -25 -10 -3 0 -6 32 -6 70 0 71 10 86 38 58z"/>
<path d="M2596 925 c-15 -22 -15 -25 1 -33 16 -9 16 -30 -2 -102 l-7 -25 21
25 c28 35 42 95 29 131 -12 35 -21 36 -42 4z"/>
</g>
</svg>
